<svg width="25" height="25" viewBox="0 0 25 25" fill="none" xmlns="http://www.w3.org/2000/svg">
<path id="Polygon 2" d="M5.60484 3.00963C6.57659 2.30361 7.06247 1.9506 7.53491 1.68036C10.6111 -0.079215 14.3889 -0.079215 17.4651 1.68036C17.9375 1.9506 18.4234 2.30361 19.3952 3.00963C20.3669 3.71565 20.8528 4.06866 21.2558 4.43447C23.8799 6.81639 25.0472 10.4092 24.3244 13.8786C24.2134 14.4115 24.0278 14.9826 23.6566 16.125C23.2854 17.2674 23.0998 17.8385 22.8765 18.3349C21.422 21.5665 18.3657 23.7871 14.8428 24.1717C14.3017 24.2307 13.7012 24.2307 12.5 24.2307C11.2988 24.2307 10.6983 24.2307 10.1572 24.1717C6.63425 23.7871 3.57799 21.5665 2.12354 18.3349C1.90016 17.8385 1.71457 17.2674 1.3434 16.125C0.972221 14.9826 0.786633 14.4115 0.675617 13.8786C-0.0472379 10.4092 1.12015 6.81639 3.74421 4.43447C4.14721 4.06866 4.63309 3.71565 5.60484 3.00963Z" fill="#FC8DBB"/>
</svg>
