<svg width="50" height="51" viewBox="0 0 50 51" fill="none" xmlns="http://www.w3.org/2000/svg">
<path id="Layer 5" d="M25 0.5C20.0555 0.5 15.222 1.96622 11.1108 4.71326C6.99953 7.46029 3.79521 11.3648 1.90302 15.9329C0.0108321 20.5011 -0.484251 25.5277 0.480379 30.3772C1.44501 35.2268 3.82603 39.6813 7.32234 43.1777C10.8187 46.674 15.2732 49.055 20.1227 50.0196C24.9723 50.9842 29.9989 50.4892 34.5671 48.597C39.1352 46.7048 43.0397 43.5005 45.7867 39.3892C48.5338 35.278 50 30.4445 50 25.5C50 18.8696 47.3661 12.5107 42.6777 7.82233C37.9893 3.13392 31.6304 0.5 25 0.5ZM22.9167 15.0833C22.9167 14.5308 23.1362 14.0009 23.5269 13.6102C23.9176 13.2195 24.4475 13 25 13C25.5525 13 26.0824 13.2195 26.4731 13.6102C26.8638 14.0009 27.0833 14.5308 27.0833 15.0833V27.5833C27.0833 28.1359 26.8638 28.6658 26.4731 29.0565C26.0824 29.4472 25.5525 29.6667 25 29.6667C24.4475 29.6667 23.9176 29.4472 23.5269 29.0565C23.1362 28.6658 22.9167 28.1359 22.9167 27.5833V15.0833ZM25 38C24.588 38 24.1852 37.8778 23.8426 37.6489C23.5 37.42 23.2329 37.0946 23.0753 36.7139C22.9176 36.3332 22.8763 35.9143 22.9567 35.5102C23.0371 35.1061 23.2355 34.7349 23.5269 34.4435C23.8182 34.1522 24.1894 33.9537 24.5936 33.8734C24.9977 33.793 25.4166 33.8342 25.7973 33.9919C26.1779 34.1496 26.5033 34.4166 26.7322 34.7592C26.9612 35.1018 27.0833 35.5046 27.0833 35.9167C27.0833 36.4692 26.8638 36.9991 26.4731 37.3898C26.0824 37.7805 25.5525 38 25 38Z" fill="black"/>
</svg>
