<svg width="49" height="51" viewBox="0 0 49 51" fill="none" xmlns="http://www.w3.org/2000/svg">
<g id="Ethereum">
<path id="Vector" d="M37.3266 27.5002C38.7195 26.6493 39.1764 24.8408 38.3549 23.4304L27.5915 4.94953C26.4345 2.96299 23.5648 2.96255 22.4072 4.94874L11.6363 23.4293C10.8141 24.8401 11.2712 26.6495 12.665 27.5004L23.4362 34.0765C24.3963 34.6627 25.6036 34.6625 26.5635 34.076L37.3266 27.5002Z" fill="black"/>
<path id="Vector_2" d="M23.3512 47.7202C24.1458 48.8776 25.8542 48.8776 26.6488 47.7202L34.5462 36.2172C35.7671 34.4389 33.6963 32.2542 31.8552 33.3782L26.0422 36.9272C25.4023 37.3179 24.5977 37.3179 23.9578 36.9272L18.1448 33.3782C16.3037 32.2542 14.2329 34.4389 15.4538 36.2172L23.3512 47.7202Z" fill="black"/>
</g>
</svg>
