<svg width="32" height="29" viewBox="0 0 32 29" fill="none" xmlns="http://www.w3.org/2000/svg">
<g id="Frame 9834">
<path id="Polygon 5" d="M7.60484 5.00963C8.57659 4.30361 9.06247 3.9506 9.53491 3.68036C12.6111 1.92078 16.3889 1.92078 19.4651 3.68036C19.9375 3.9506 20.4234 4.30361 21.3952 5.00963C22.3669 5.71565 22.8528 6.06866 23.2558 6.43447C25.8799 8.81639 27.0472 12.4092 26.3244 15.8786C26.2134 16.4115 26.0278 16.9826 25.6566 18.125C25.2854 19.2674 25.0998 19.8385 24.8765 20.3349C23.422 23.5665 20.3657 25.7871 16.8428 26.1717C16.3017 26.2307 15.7012 26.2307 14.5 26.2307C13.2988 26.2307 12.6983 26.2307 12.1572 26.1717C8.63425 25.7871 5.57799 23.5665 4.12354 20.3349C3.90016 19.8385 3.71457 19.2674 3.3434 18.125C2.97222 16.9826 2.78663 16.4115 2.67562 15.8786C1.95276 12.4092 3.12015 8.81639 5.74421 6.43447C6.14721 6.06866 6.63309 5.71565 7.60484 5.00963Z" fill="black"/>
<path id="Polygon 6" d="M22.5213 10.4002C24.2975 9.10976 26.7025 9.10976 28.4787 10.4002C30.2548 11.6906 30.998 13.978 30.3196 16.066C29.6412 18.154 27.6954 19.5676 25.5 19.5676C23.3046 19.5676 21.3588 18.154 20.6804 16.066C20.002 13.978 20.7452 11.6906 22.5213 10.4002Z" fill="#FC8DBB" stroke="#F9F7ED" stroke-width="2"/>
</g>
</svg>
