<svg width="29" height="29" viewBox="0 0 29 29" fill="none" xmlns="http://www.w3.org/2000/svg">
<g id="Frame 9835">
<path id="Polygon 6" d="M11.9571 11.9571C12.3687 11.5455 12.5146 11.4021 12.641 11.3023C13.7309 10.4417 15.2691 10.4417 16.359 11.3023C16.4854 11.4021 16.6313 11.5455 17.0429 11.9571C17.4545 12.3687 17.5979 12.5146 17.6977 12.641C18.5583 13.7309 18.5583 15.2691 17.6977 16.359C17.5979 16.4854 17.4545 16.6313 17.0429 17.0429C16.6313 17.4545 16.4854 17.5979 16.359 17.6977C15.2691 18.5583 13.7309 18.5583 12.641 17.6977C12.5146 17.5979 12.3687 17.4545 11.9571 17.0429C11.5455 16.6313 11.4021 16.4854 11.3023 16.359C10.4417 15.2691 10.4417 13.7309 11.3023 12.641C11.4021 12.5146 11.5455 12.3687 11.9571 11.9571Z" stroke="black" stroke-width="2"/>
<path id="Polygon 5" d="M8.19263 5.81864C9.18378 5.09853 9.61768 4.78505 10.0314 4.5484C12.8 2.96477 16.2 2.96477 18.9686 4.5484C19.3823 4.78505 19.8162 5.09853 20.8074 5.81864C21.7985 6.53876 22.2307 6.85455 22.5837 7.17491C24.9453 9.31864 25.996 12.5522 25.3454 15.6747C25.2482 16.1413 25.0841 16.6508 24.7055 17.816C24.327 18.9812 24.1602 19.4898 23.9646 19.9245C22.6556 22.833 19.9049 24.8314 16.7342 25.1776C16.2604 25.2293 15.7251 25.2307 14.5 25.2307C13.2749 25.2307 12.7396 25.2293 12.2658 25.1776C9.09508 24.8314 6.34445 22.833 5.03544 19.9245C4.83982 19.4898 4.67304 18.9812 4.29445 17.816C3.91587 16.6508 3.75182 16.1413 3.65459 15.6747C3.00402 12.5522 4.05467 9.31864 6.41633 7.17491C6.76926 6.85455 7.20147 6.53876 8.19263 5.81864Z" stroke="black" stroke-width="2"/>
</g>
</svg>
