<svg width="21" height="25" viewBox="0 0 21 25" fill="none" xmlns="http://www.w3.org/2000/svg">
<path id="Vector" d="M19.6196 10.8227C19.1563 9.00037 18.2915 7.51778 17.6737 5.75721C17.3957 4.95414 17.3957 3.87308 16.778 5.13946C16.3147 6.06608 16.3456 7.02359 16.1911 7.9502C16.1602 8.1973 16.0985 8.4444 16.0367 8.6915C15.9749 8.90771 15.666 8.96949 15.5116 8.78416C15.0483 8.13553 14.6468 7.45601 14.3379 6.7456C13.9672 5.91164 13.751 5.01591 13.6584 4.12018C13.5039 2.51404 13.6584 1.21677 13.8437 0.382814C13.9055 0.0739404 13.5348 -0.111383 13.2877 0.0739404C11.0021 2.01984 9.48858 3.99663 8.4693 5.69543C8.43841 5.75721 8.40753 5.78809 8.37664 5.84987C8.12954 6.28229 7.94422 6.65294 7.75889 7.05447C7.75889 7.08536 7.728 7.11625 7.728 7.14713C7.63534 7.36335 7.54268 7.54867 7.48091 7.73399C7.07937 8.66061 6.86316 9.46368 6.73961 10.0814C6.64695 10.4212 6.18364 10.4521 6.09098 10.1123C5.90566 9.55634 5.75122 8.96949 5.59678 8.35174C5.5659 8.1973 5.53501 8.04287 5.50412 7.88843C5.50412 7.85754 5.50412 7.82665 5.47323 7.76488C5.41146 7.48689 5.38057 7.20891 5.34969 6.90004C5.3188 6.71471 5.28791 6.52939 5.28791 6.34406C5.22614 5.57188 5.19525 4.73792 5.25702 3.84219C5.28791 3.53332 4.85549 3.37888 4.67017 3.62598C4.67017 3.62598 0.345946 7.48689 0.129735 13.2937C0.0988478 13.479 0.0679608 13.6952 0.0370735 13.9115C-0.179137 16.4442 0.562157 18.8225 1.95208 20.614C2.07563 20.7684 2.19918 20.9538 2.32273 21.1082C2.38451 21.2009 2.44628 21.2626 2.50806 21.3553C4.26863 23.5792 6.98671 25 10.0446 25C12.2684 25 14.307 24.2587 15.9131 22.9923C15.944 22.9923 15.9749 22.9614 15.9749 22.9305C17.9517 21.5097 19.3107 19.2858 19.8358 16.8766C20.2374 14.9307 20.1138 12.7995 19.6196 10.8227Z" fill="black"/>
</svg>
