<svg width="42" height="61" viewBox="0 0 42 61" fill="none" xmlns="http://www.w3.org/2000/svg">
<g id="Frame 14">
<g id="Subtract">
<mask id="path-1-inside-1_1033_3697" fill="white">
<path fill-rule="evenodd" clip-rule="evenodd" d="M39.2124 31.1619C38.1012 34.8919 30.2836 37.782 20.8048 37.782C11.3253 37.782 3.50721 34.8915 2.3969 31.1611C2.21063 32.0661 2.33498 33.0512 2.86097 33.9585L17.3441 58.9386C18.8853 61.5968 22.7238 61.5968 24.265 58.9386L38.7482 33.9585C39.274 33.0515 39.3984 32.0667 39.2124 31.1619Z"/>
</mask>
<path fill-rule="evenodd" clip-rule="evenodd" d="M39.2124 31.1619C38.1012 34.8919 30.2836 37.782 20.8048 37.782C11.3253 37.782 3.50721 34.8915 2.3969 31.1611C2.21063 32.0661 2.33498 33.0512 2.86097 33.9585L17.3441 58.9386C18.8853 61.5968 22.7238 61.5968 24.265 58.9386L38.7482 33.9585C39.274 33.0515 39.3984 32.0667 39.2124 31.1619Z" fill="#FFB800"/>
<path d="M39.2124 31.1619L41.1714 30.7591C40.9868 29.8611 40.2151 29.2036 39.2991 29.1638C38.3831 29.124 37.5574 29.7122 37.2957 30.5909L39.2124 31.1619ZM2.3969 31.1611L4.31379 30.5906C4.05223 29.7118 3.22663 29.1234 2.31061 29.163C1.39459 29.2026 0.622788 29.8599 0.437956 30.758L2.3969 31.1611ZM2.86097 33.9585L4.5912 32.9553L2.86097 33.9585ZM17.3441 58.9386L15.6139 59.9417L17.3441 58.9386ZM24.265 58.9386L25.9952 59.9418L24.265 58.9386ZM38.7482 33.9585L40.4784 34.9616V34.9616L38.7482 33.9585ZM37.2957 30.5909C37.18 30.9792 36.8248 31.5376 35.9833 32.1829C35.1547 32.8184 33.9751 33.4428 32.4646 33.9905C29.4467 35.0849 25.3605 35.782 20.8048 35.782V39.782C25.7278 39.782 30.2899 39.034 33.8283 37.7509C35.596 37.1099 37.1716 36.3124 38.4175 35.3569C39.6506 34.4113 40.6893 33.2096 41.1292 31.7329L37.2957 30.5909ZM20.8048 35.782C16.2487 35.782 12.1623 35.0848 9.14429 33.9903C7.63378 33.4425 6.45427 32.818 5.62572 32.1825C4.78438 31.5371 4.42934 30.9788 4.31379 30.5906L0.480005 31.7317C0.919608 33.2086 1.9582 34.4105 3.19126 35.3563C4.43711 36.3119 6.01278 37.1095 7.78052 37.7506C11.319 39.0339 15.8814 39.782 20.8048 39.782V35.782ZM0.437956 30.758C0.156704 32.1245 0.348688 33.6127 1.13075 34.9616L4.5912 32.9553C4.32128 32.4897 4.26456 32.0078 4.35584 31.5643L0.437956 30.758ZM1.13075 34.9616L15.6139 59.9417L19.0744 57.9354L4.5912 32.9553L1.13075 34.9616ZM15.6139 59.9417C17.9257 63.9291 23.6834 63.9291 25.9952 59.9418L22.5348 57.9354C21.7642 59.2645 19.845 59.2645 19.0744 57.9354L15.6139 59.9417ZM25.9952 59.9418L40.4784 34.9616L37.0179 32.9553L22.5348 57.9354L25.9952 59.9418ZM40.4784 34.9616C41.2602 33.6131 41.4523 32.1254 41.1714 30.7591L37.2534 31.5647C37.3446 32.0081 37.2878 32.4899 37.0179 32.9553L40.4784 34.9616Z" fill="#B84B9A" mask="url(#path-1-inside-1_1033_3697)"/>
</g>
<g id="Mask group">
<mask id="mask0_1033_3697" style="mask-type:alpha" maskUnits="userSpaceOnUse" x="2" y="31" width="38" height="30">
<g id="Subtract_2">
<mask id="path-3-inside-2_1033_3697" fill="white">
<path fill-rule="evenodd" clip-rule="evenodd" d="M39.2122 31.1611C38.1017 34.8915 30.2837 37.7819 20.8043 37.7819C11.3257 37.7819 3.50822 34.8919 2.39677 31.1621C2.21069 32.0669 2.3351 33.0518 2.86097 33.9588L17.3441 58.9389C18.8853 61.5971 22.7238 61.5972 24.265 58.9389L38.7482 33.9588C39.2742 33.0515 39.3985 32.0662 39.2122 31.1611Z"/>
</mask>
<path fill-rule="evenodd" clip-rule="evenodd" d="M39.2122 31.1611C38.1017 34.8915 30.2837 37.7819 20.8043 37.7819C11.3257 37.7819 3.50822 34.8919 2.39677 31.1621C2.21069 32.0669 2.3351 33.0518 2.86097 33.9588L17.3441 58.9389C18.8853 61.5971 22.7238 61.5972 24.265 58.9389L38.7482 33.9588C39.2742 33.0515 39.3985 32.0662 39.2122 31.1611Z" fill="white"/>
<path d="M39.2122 31.1611L41.1711 30.7578C40.9862 29.8598 40.2144 29.2025 39.2984 29.163C38.3824 29.1235 37.5569 29.7118 37.2953 30.5905L39.2122 31.1611ZM2.39677 31.1621L4.31348 30.5909C4.05167 29.7123 3.22597 29.1242 2.31002 29.1639C1.39407 29.2037 0.622453 29.8612 0.437771 30.7592L2.39677 31.1621ZM2.86097 33.9588L1.13075 34.9619L2.86097 33.9588ZM17.3441 58.9389L15.6139 59.9421L17.3441 58.9389ZM24.265 58.9389L25.9952 59.9421L24.265 58.9389ZM38.7482 33.9588L37.018 32.9556V32.9556L38.7482 33.9588ZM37.2953 30.5905C37.1797 30.9788 36.8247 31.5371 35.9833 32.1824C35.1548 32.8179 33.9752 33.4424 32.4647 33.9902C29.4468 35.0847 25.3604 35.7819 20.8043 35.7819V39.7819C25.7277 39.7819 30.29 39.0339 33.8285 37.7506C35.5962 37.1095 37.1719 36.3119 38.4177 35.3563C39.6508 34.4105 40.6894 33.2087 41.1291 31.7317L37.2953 30.5905ZM20.8043 35.7819C16.2487 35.7819 12.1626 35.0849 9.14468 33.9905C7.63422 33.4428 6.45465 32.8184 5.62597 32.1829C4.78448 31.5376 4.4292 30.9792 4.31348 30.5909L0.480061 31.7332C0.920066 33.2098 1.95877 34.4114 3.19187 35.357C4.43778 36.3124 6.0134 37.1099 7.78107 37.7509C11.3194 39.034 15.8814 39.7819 20.8043 39.7819V35.7819ZM0.437771 30.7592C0.156786 32.1255 0.348864 33.6134 1.13075 34.9619L4.5912 32.9556C4.32133 32.4902 4.26459 32.0083 4.35577 31.5649L0.437771 30.7592ZM1.13075 34.9619L15.6139 59.9421L19.0744 57.9357L4.5912 32.9556L1.13075 34.9619ZM15.6139 59.9421C17.9257 63.9294 23.6834 63.9294 25.9952 59.9421L22.5348 57.9358C21.7642 59.2649 19.845 59.2649 19.0744 57.9357L15.6139 59.9421ZM25.9952 59.9421L40.4784 34.962L37.018 32.9556L22.5348 57.9358L25.9952 59.9421ZM40.4784 34.962C41.2606 33.6129 41.4525 32.1245 41.1711 30.7578L37.2533 31.5645C37.3446 32.008 37.2879 32.49 37.018 32.9556L40.4784 34.962Z" fill="#1B1BB3" mask="url(#path-3-inside-2_1033_3697)"/>
</g>
</mask>
<g mask="url(#mask0_1033_3697)">
<path id="Ellipse 6" d="M64.4689 16.4684C64.4689 32.7055 51.3061 45.8684 35.0689 45.8684C18.8318 45.8684 5.66895 32.7055 5.66895 16.4684C5.66895 0.231188 18.8318 -12.9316 35.0689 -12.9316C51.3061 -12.9316 64.4689 0.231188 64.4689 16.4684Z" stroke="#B84B9A" stroke-width="2"/>
<circle id="Ellipse 7" cx="35.0685" cy="16.4684" r="35.6667" stroke="#B84B9A" stroke-width="2"/>
<path id="Ellipse 8" d="M77.1342 16.469C77.1342 39.7018 58.3003 58.5357 35.0675 58.5357C11.8347 58.5357 -6.99915 39.7018 -6.99915 16.469C-6.99915 -6.76377 11.8347 -25.5977 35.0675 -25.5977C58.3003 -25.5977 77.1342 -6.76377 77.1342 16.469Z" stroke="#B84B9A" stroke-width="2"/>
</g>
</g>
<path id="Vector" d="M37.7584 28.5247C37.7815 28.7599 37.7815 28.9972 37.7584 29.2324C37.6212 31.4565 36.7466 33.5421 35.3071 35.0777C35.3071 35.0777 33.7272 39.2673 20.6816 39.2673C7.63591 39.2673 6.05596 35.0777 6.05596 35.0777C4.56095 33.4977 3.67327 31.3256 3.5814 29.0227C3.56987 28.8569 3.56987 28.6904 3.5814 28.5247C3.57589 27.1909 3.83245 25.8721 4.33281 24.6624C4.83317 23.4527 5.56501 22.3818 6.47617 21.526C7.10818 20.9435 7.81699 20.4748 8.57721 20.1368C8.56629 20.0851 8.56629 20.0312 8.57721 19.9795C8.3882 19.3521 8.27055 18.7004 8.22704 18.0398C8.22389 16.7598 8.46139 15.4935 8.92402 14.3236C9.38664 13.1537 10.064 12.1067 10.9117 11.2509C11.517 10.6522 12.1925 10.1495 12.9194 9.7568C13.0154 7.40158 13.9152 5.17826 15.4322 3.54814C16.9492 1.91801 18.967 1.00622 21.0667 1.00195C20.88 1.00195 20.4598 2.10286 20.3897 2.28635C20.2012 2.79269 20.0603 3.3198 19.9695 3.85907C19.6661 6.16574 19.9695 8.76074 22.4441 8.94422C25.0136 9.19841 27.4358 10.4011 29.3321 12.3644C31.2285 14.3277 32.4923 16.941 32.926 19.796C32.934 19.9269 32.934 20.0583 32.926 20.1892C33.7214 20.585 34.4484 21.1351 35.0737 21.8144C35.9127 22.6613 36.5849 23.6956 37.0472 24.8512C37.5095 26.0067 37.7517 27.2579 37.7584 28.5247Z" fill="#B84B9A" stroke="#B84B9A" stroke-width="2" stroke-linejoin="round"/>
<g id="Subtract_3">
<mask id="path-9-outside-3_1033_3697" maskUnits="userSpaceOnUse" x="0.0032959" y="26.2969" width="42" height="15" fill="black">
<rect fill="white" x="0.0032959" y="26.2969" width="42" height="15"/>
<path fill-rule="evenodd" clip-rule="evenodd" d="M37.2017 28.2969C37.2118 28.9227 37.1628 29.479 37.0596 29.9731C37.6642 30.6266 37.887 31.2173 37.887 31.7257C37.887 32.2929 37.6097 32.9626 36.8342 33.7076C36.0552 34.4561 34.8575 35.1916 33.2681 35.8374C30.096 37.1264 25.622 37.9541 20.6118 37.9541C15.6016 37.9541 11.1276 37.1264 7.95555 35.8374C6.36613 35.1916 5.16845 34.4561 4.38939 33.7076C3.61395 32.9626 3.33663 32.2929 3.33663 31.7257C3.33663 31.3077 3.48724 30.8341 3.87682 30.3156C3.74189 29.8245 3.65516 29.2679 3.62037 28.6379C2.5812 29.5807 2.0033 30.6258 2.0033 31.7257C2.0033 35.902 10.3346 39.2875 20.6118 39.2875C30.889 39.2875 39.2203 35.902 39.2203 31.7257C39.2203 30.4914 38.4925 29.3261 37.2017 28.2969Z"/>
</mask>
<path fill-rule="evenodd" clip-rule="evenodd" d="M37.2017 28.2969C37.2118 28.9227 37.1628 29.479 37.0596 29.9731C37.6642 30.6266 37.887 31.2173 37.887 31.7257C37.887 32.2929 37.6097 32.9626 36.8342 33.7076C36.0552 34.4561 34.8575 35.1916 33.2681 35.8374C30.096 37.1264 25.622 37.9541 20.6118 37.9541C15.6016 37.9541 11.1276 37.1264 7.95555 35.8374C6.36613 35.1916 5.16845 34.4561 4.38939 33.7076C3.61395 32.9626 3.33663 32.2929 3.33663 31.7257C3.33663 31.3077 3.48724 30.8341 3.87682 30.3156C3.74189 29.8245 3.65516 29.2679 3.62037 28.6379C2.5812 29.5807 2.0033 30.6258 2.0033 31.7257C2.0033 35.902 10.3346 39.2875 20.6118 39.2875C30.889 39.2875 39.2203 35.902 39.2203 31.7257C39.2203 30.4914 38.4925 29.3261 37.2017 28.2969Z" fill="#FFB800"/>
<path d="M37.2017 28.2969L38.4486 26.7331C37.8434 26.2506 37.0141 26.1605 36.3194 26.502C35.6248 26.8435 35.1895 27.5551 35.202 28.329L37.2017 28.2969ZM37.0596 29.9731L35.1019 29.5638C34.9694 30.1975 35.1518 30.8561 35.5915 31.3313L37.0596 29.9731ZM36.8342 33.7076L35.4486 32.2654V32.2654L36.8342 33.7076ZM33.2681 35.8374L32.5151 33.9846L33.2681 35.8374ZM7.95555 35.8374L8.70848 33.9846L7.95555 35.8374ZM4.38939 33.7076L5.77502 32.2654L5.77501 32.2654L4.38939 33.7076ZM3.87682 30.3156L5.47569 31.5171C5.84765 31.0222 5.96939 30.3828 5.80536 29.7858L3.87682 30.3156ZM3.62037 28.6379L5.61732 28.5276C5.57479 27.7575 5.0932 27.0805 4.37963 26.7876C3.66607 26.4948 2.84772 26.6384 2.27649 27.1567L3.62037 28.6379ZM35.202 28.329C35.2101 28.8335 35.1698 29.239 35.1019 29.5638L39.0172 30.3824C39.1559 29.719 39.2135 29.0119 39.2015 28.2647L35.202 28.329ZM35.5915 31.3313C35.7747 31.5293 35.8481 31.662 35.8749 31.7217C35.8989 31.7754 35.887 31.7725 35.887 31.7257H39.887C39.887 30.5846 39.3751 29.5308 38.5276 28.6148L35.5915 31.3313ZM35.887 31.7257C35.887 31.6715 35.9027 31.6754 35.8637 31.7532C35.8203 31.8397 35.7096 32.0146 35.4486 32.2654L38.2198 35.1498C39.2483 34.1618 39.887 33.0044 39.887 31.7257H35.887ZM35.4486 32.2654C34.9134 32.7795 33.9631 33.3962 32.5151 33.9846L34.021 37.6903C35.7518 36.987 37.1969 36.1326 38.2198 35.1498L35.4486 32.2654ZM32.5151 33.9846C29.6362 35.1545 25.4293 35.9541 20.6118 35.9541V39.9541C25.8146 39.9541 30.5558 39.0984 34.021 37.6903L32.5151 33.9846ZM20.6118 35.9541C15.7943 35.9541 11.5874 35.1545 8.70848 33.9846L7.20262 37.6903C10.6678 39.0984 15.409 39.9541 20.6118 39.9541V35.9541ZM8.70848 33.9846C7.26048 33.3962 6.31018 32.7795 5.77502 32.2654L3.00377 35.1498C4.02672 36.1326 5.47177 36.987 7.20262 37.6903L8.70848 33.9846ZM5.77501 32.2654C5.51402 32.0146 5.40326 31.8397 5.35991 31.7532C5.32088 31.6754 5.33663 31.6715 5.33663 31.7257H1.33663C1.33663 33.0044 1.97532 34.1618 3.00377 35.1498L5.77501 32.2654ZM5.33663 31.7257C5.33663 31.762 5.32924 31.7718 5.33835 31.7469C5.34856 31.7191 5.38207 31.6417 5.47569 31.5171L2.27795 29.1141C1.67961 29.9104 1.33663 30.7956 1.33663 31.7257H5.33663ZM5.80536 29.7858C5.71436 29.4546 5.64571 29.0416 5.61732 28.5276L1.62341 28.7482C1.66461 29.4943 1.76943 30.1945 1.94828 30.8455L5.80536 29.7858ZM4.0033 31.7257C4.0033 31.3809 4.17681 30.8336 4.96424 30.1191L2.27649 27.1567C0.985596 28.3279 0.00329602 29.8707 0.00329602 31.7257H4.0033ZM20.6118 37.2875C15.6658 37.2875 11.2809 36.4691 8.20653 35.2198C6.66426 34.5931 5.54903 33.8972 4.85127 33.2269C4.15893 32.5617 4.0033 32.0545 4.0033 31.7257H0.00329602C0.00329602 33.485 0.889081 34.9671 2.08002 36.1113C3.26554 37.2503 4.87547 38.1839 6.70067 38.9255C10.3613 40.4131 15.2806 41.2875 20.6118 41.2875V37.2875ZM37.2203 31.7257C37.2203 32.0545 37.0647 32.5617 36.3723 33.2269C35.6746 33.8972 34.5593 34.5931 33.0171 35.2198C29.9427 36.4691 25.5578 37.2875 20.6118 37.2875V41.2875C25.943 41.2875 30.8623 40.4131 34.5229 38.9255C36.3481 38.1839 37.9581 37.2503 39.1436 36.1113C40.3345 34.9671 41.2203 33.485 41.2203 31.7257H37.2203ZM35.9549 29.8606C36.9971 30.6916 37.2203 31.3411 37.2203 31.7257H41.2203C41.2203 29.6416 39.9879 27.9605 38.4486 26.7331L35.9549 29.8606Z" fill="#B84B9A" mask="url(#path-9-outside-3_1033_3697)"/>
</g>
</g>
</svg>
