<svg width="23" height="23" viewBox="0 0 23 23" fill="none" xmlns="http://www.w3.org/2000/svg">
<path id="Polygon 4" d="M4.25 4.25C5.73089 2.76911 6.47134 2.02866 7.22204 1.5536C9.83444 -0.0995882 13.1656 -0.0995882 15.778 1.5536C16.5287 2.02866 17.2691 2.76911 18.75 4.25C20.2309 5.73089 20.9713 6.47134 21.4464 7.22204C23.0996 9.83444 23.0996 13.1656 21.4464 15.778C20.9713 16.5287 20.2309 17.2691 18.75 18.75C17.2691 20.2309 16.5287 20.9713 15.778 21.4464C13.1656 23.0996 9.83444 23.0996 7.22204 21.4464C6.47134 20.9713 5.73089 20.2309 4.25 18.75C2.76911 17.2691 2.02866 16.5287 1.5536 15.778C-0.0995882 13.1656 -0.0995882 9.83444 1.5536 7.22204C2.02866 6.47134 2.76911 5.73089 4.25 4.25Z" fill="black" fill-opacity="0.5"/>
</svg>
