<svg width="56" height="57" viewBox="0 0 56 57" fill="none" xmlns="http://www.w3.org/2000/svg">
<g id="Smoothly">
<path id="Subtract" d="M41.6779 34.8551C41.3214 34.4541 41.1431 34.2536 40.5189 34.1595C39.8947 34.0654 39.4907 34.3101 38.6827 34.7994C38.3177 35.0205 37.936 35.2504 37.5373 35.4905L33.6491 37.8324C30.7264 39.5926 29.2651 40.4728 27.6493 40.473C26.0335 40.4733 24.5719 39.5936 21.6487 37.8342L17.7557 35.4912C17.5604 35.3736 17.3692 35.2585 17.182 35.1457C16.5703 34.7771 16.2644 34.5928 15.7122 34.6326C15.5565 34.6439 15.1826 34.7483 15.0436 34.8194C14.5507 35.0714 14.4754 35.2147 14.3249 35.5011C13.0173 37.9902 15.2244 41.193 19.6385 47.5987L20.5612 48.9377C24.0402 53.9864 25.7797 56.5107 28.2241 56.5107C30.6686 56.5107 32.4081 53.9864 35.8871 48.9377L36.8098 47.5987C41.2239 41.193 43.431 37.9902 42.1234 35.5011C41.9987 35.2639 41.8506 35.0493 41.6779 34.8551Z" fill="black"/>
<path id="Vector" d="M35.5609 34.353C41.1543 30.9842 43.9511 29.2998 44.6552 26.5136C45.3593 23.7275 43.6986 20.9166 40.3773 15.2948L39.6634 14.0865C34.3082 5.02208 31.6306 0.48987 27.6482 0.489258C23.6657 0.488646 20.9867 5.02003 15.6287 14.0828L14.9153 15.2896C11.5903 20.9135 9.92787 23.7255 10.6323 26.5129C11.3367 29.3002 14.1355 30.9847 19.7332 34.3538L20.4483 34.7842C23.9562 36.8954 25.7101 37.951 27.649 37.9507C29.588 37.9504 31.3416 36.8943 34.8487 34.782L35.5609 34.353Z" fill="black"/>
</g>
</svg>
