<svg width="23" height="23" viewBox="0 0 23 23" fill="none" xmlns="http://www.w3.org/2000/svg">
<path id="Polygon 4" d="M4.95711 4.95711C6.47628 3.43794 7.12357 2.79932 7.75679 2.39861C10.0426 0.952074 12.9574 0.952074 15.2432 2.39861C15.8764 2.79932 16.5237 3.43794 18.0429 4.95711C19.5621 6.47628 20.2007 7.12357 20.6014 7.75679C22.0479 10.0426 22.0479 12.9574 20.6014 15.2432C20.2007 15.8764 19.5621 16.5237 18.0429 18.0429C16.5237 19.5621 15.8764 20.2007 15.2432 20.6014C12.9574 22.0479 10.0426 22.0479 7.75679 20.6014C7.12357 20.2007 6.47628 19.5621 4.95711 18.0429C3.43794 16.5237 2.79932 15.8764 2.39861 15.2432C0.952074 12.9574 0.952074 10.0426 2.39861 7.75679C2.79932 7.12357 3.43794 6.47628 4.95711 4.95711Z" stroke="#5F5F5F" stroke-width="2"/>
</svg>
