<svg width="25" height="25" viewBox="0 0 25 25" fill="none" xmlns="http://www.w3.org/2000/svg">
<rect width="25" height="25" fill="#2D2D2D"/>
<g id="v3.2 - Prototyped">
<path d="M-3279 -2681C-3279 -2682.1 -3278.1 -2683 -3277 -2683H8071C8072.1 -2683 8073 -2682.1 8073 -2681V4435C8073 4436.1 8072.1 4437 8071 4437H-3277C-3278.1 4437 -3279 4436.1 -3279 4435V-2681Z" fill="#141414"/>
<path d="M-3277 -2682H8071V-2684H-3277V-2682ZM8072 -2681V4435H8074V-2681H8072ZM8071 4436H-3277V4438H8071V4436ZM-3278 4435V-2681H-3280V4435H-3278ZM-3277 4436C-3277.55 4436 -3278 4435.55 -3278 4435H-3280C-3280 4436.66 -3278.66 4438 -3277 4438V4436ZM8072 4435C8072 4435.55 8071.55 4436 8071 4436V4438C8072.66 4438 8074 4436.66 8074 4435H8072ZM8071 -2682C8071.55 -2682 8072 -2681.55 8072 -2681H8074C8074 -2682.66 8072.66 -2684 8071 -2684V-2682ZM-3277 -2684C-3278.66 -2684 -3280 -2682.66 -3280 -2681H-3278C-3278 -2681.55 -3277.55 -2682 -3277 -2682V-2684Z" fill="white" fill-opacity="0.1"/>
<g id="Desktop / Visible" clip-path="url(#clip0_503_4453)">
<rect width="1786" height="1167" transform="translate(-50 -1092)" fill="white"/>
<g id="Desktop / 50px / A">
<g id="Frame 444">
<g id="Frame 53">
<g id="Frame 40">
<g id="Frame 20">
<path id="Vector" d="M12.5 12.5C9.06217 12.5 6.25 9.68743 6.25 6.25C6.25 2.81257 9.06217 0 12.5 0C15.9378 0 18.75 2.81257 18.75 6.25C18.75 9.68743 15.9378 12.5 12.5 12.5ZM12.5 15.625C16.6405 15.625 25 17.7345 25 21.875V25H0V21.875C0 17.7345 8.35951 15.625 12.5 15.625Z" fill="#5F5F5F"/>
</g>
</g>
</g>
</g>
</g>
</g>
</g>
<defs>
<clipPath id="clip0_503_4453">
<rect width="1786" height="1167" fill="white" transform="translate(-50 -1092)"/>
</clipPath>
</defs>
</svg>
